<svg width="100" height="155" viewBox="0 0 100 155" xmlns="http://www.w3.org/2000/svg"><rect x="20" y="10" width="60" height="125" rx="30" fill="#4B5563" stroke="#374151" stroke-width="2"/><text x="50" y="30" font-family="Arial" font-size="7" fill="white" font-weight="bold" font-style="italic" text-anchor="middle">MikroTik</text><text x="50" y="44" font-family="Arial" font-size="8" fill="white" font-weight="bold" text-anchor="middle">mANT</text><rect x="35" y="60" width="2" height="14" rx="1" fill="white" opacity="0.6"/><rect x="40" y="56" width="2" height="18" rx="1" fill="white" opacity="0.7"/><rect x="45" y="52" width="2" height="22" rx="1" fill="white" opacity="0.9"/><rect x="50" y="50" width="2" height="24" rx="1" fill="white"/><rect x="55" y="52" width="2" height="22" rx="1" fill="white" opacity="0.9"/><rect x="60" y="56" width="2" height="18" rx="1" fill="white" opacity="0.7"/><rect x="65" y="60" width="2" height="14" rx="1" fill="white" opacity="0.6"/><path d="M 50 78 Q 40 88 30 98" fill="none" stroke="white" stroke-width="1.5" opacity="0.6"/><path d="M 50 78 Q 60 88 70 98" fill="none" stroke="white" stroke-width="1.5" opacity="0.6"/><path d="M 50 78 Q 42 83 34 88" fill="none" stroke="white" stroke-width="1.5" opacity="0.8"/><path d="M 50 78 Q 58 83 66 88" fill="none" stroke="white" stroke-width="1.5" opacity="0.8"/><text x="50" y="110" font-family="Arial" font-size="8" fill="white" font-weight="bold" text-anchor="middle">19s</text><rect x="37" y="118" width="26" height="10" rx="1" fill="#9CA3AF" stroke="#6B7280" stroke-width="1"/><g><rect x="44.5" y="119.5" width="11" height="11" rx="1" fill="#E5E7EB" stroke="#9CA3AF" stroke-width="1.5"/><rect x="46" y="121" width="8" height="8" rx="0.5" fill="#9CA3AF" stroke="#6B7280" stroke-width="1"/><path d="&#10;          M 47 122&#10;          h 6&#10;          v 3.9000000000000004&#10;          h -1.9500000000000002&#10;          v 2.0999999999999996&#10;          h -2.0999999999999996&#10;          v -2.0999999999999996&#10;          h -1.9500000000000002&#10;          Z&#10;        " fill="#000000"/></g><text x="50" y="148" font-family="Arial" font-size="7" fill="#374151" font-weight="bold" text-anchor="middle">mANT 19s</text></svg>