<svg width="120" height="90" viewBox="0 0 120 90" xmlns="http://www.w3.org/2000/svg"><rect x="10" y="10" width="100" height="60" rx="12" fill="#4B5563" stroke="#374151" stroke-width="2"/><text x="20" y="26" font-family="Arial" font-size="10" fill="white" font-weight="bold" font-style="italic">MikroTik</text><text x="20" y="38" font-family="Arial" font-size="11" fill="white" font-weight="bold" letter-spacing="0.5">NetMetal 5</text><rect x="20" y="48" width="80" height="17" rx="2" fill="#9CA3AF" stroke="#6B7280" stroke-width="1"/><g><rect x="25" y="51.5" width="14" height="10" rx="1" fill="#D1D5DB" stroke="#9CA3AF" stroke-width="1.5"/><rect x="26.5" y="53" width="11" height="7" rx="0.5" fill="#1F2937" stroke="#4B5563" stroke-width="1"/><rect x="27.5" y="54" width="9" height="5" fill="#000000"/></g><g><rect x="45" y="51.5" width="11" height="11" rx="1" fill="#FFD700" stroke="#FFA500" stroke-width="1.5"/><rect x="46.5" y="53" width="8" height="8" rx="0.5" fill="#9CA3AF" stroke="#6B7280" stroke-width="1"/><path d="&#10;          M 47.5 54&#10;          h 6&#10;          v 3.9000000000000004&#10;          h -1.9500000000000002&#10;          v 2.0999999999999996&#10;          h -2.0999999999999996&#10;          v -2.0999999999999996&#10;          h -1.9500000000000002&#10;          Z&#10;        " fill="#000000"/></g><circle cx="72" cy="56.5" r="3" fill="#60A5FA" stroke="#2563EB" stroke-width="1"/><text x="60" y="83" font-family="Arial" font-size="8" fill="#374151" font-weight="bold" text-anchor="middle">NetMetal 5</text></svg>