<svg width="100" height="100" viewBox="0 0 100 100" xmlns="http://www.w3.org/2000/svg"><circle cx="50" cy="50" r="40" fill="#4B5563" stroke="#374151" stroke-width="2"/><text x="50" y="30" font-family="Arial" font-size="7" fill="white" font-weight="bold" font-style="italic" text-anchor="middle">MikroTik</text><text x="50" y="40" font-family="Arial" font-size="9" fill="white" font-weight="bold" text-anchor="middle">SXT LTE</text><rect x="45" y="52" width="10" height="2" rx="1" fill="white"/><rect x="47" y="50" width="6" height="2" rx="1" fill="white"/><line x1="50" y1="50" x2="50" y2="45" stroke="white" stroke-width="1.5"/><circle cx="50" cy="44" r="1.5" fill="white"/><circle cx="50" cy="60" r="7" fill="#D40000"/><text x="50" y="63" font-family="Arial" font-size="7" fill="black" font-weight="bold" text-anchor="middle">4G</text><rect x="37" y="72" width="26" height="10" rx="1" fill="#9CA3AF" stroke="#6B7280" stroke-width="1"/><g><rect x="44.5" y="73.5" width="11" height="11" rx="1" fill="#E5E7EB" stroke="#9CA3AF" stroke-width="1.5"/><rect x="46" y="75" width="8" height="8" rx="0.5" fill="#9CA3AF" stroke="#6B7280" stroke-width="1"/><path d="&#10;          M 47 76&#10;          h 6&#10;          v 3.9000000000000004&#10;          h -1.9500000000000002&#10;          v 2.0999999999999996&#10;          h -2.0999999999999996&#10;          v -2.0999999999999996&#10;          h -1.9500000000000002&#10;          Z&#10;        " fill="#000000"/></g><text x="50" y="98" font-family="Arial" font-size="7" fill="#374151" font-weight="bold" text-anchor="middle">SXT LTE</text></svg>