<svg width="100" height="100" viewBox="0 0 100 100" xmlns="http://www.w3.org/2000/svg"><circle cx="50" cy="50" r="40" fill="#4B5563" stroke="#374151" stroke-width="2"/><text x="50" y="35" font-family="Arial" font-size="8" fill="white" font-weight="bold" font-style="italic" text-anchor="middle">MikroTik</text><text x="50" y="48" font-family="Arial" font-size="10" fill="white" font-weight="bold" text-anchor="middle">cAP</text><circle cx="50" cy="58" r="3" fill="none" stroke="white" stroke-width="1.5"/><circle cx="50" cy="58" r="6" fill="none" stroke="white" stroke-width="1.5" opacity="0.7"/><circle cx="50" cy="58" r="9" fill="none" stroke="white" stroke-width="1.5" opacity="0.4"/><rect x="32" y="72" width="36" height="10" rx="1" fill="#9CA3AF" stroke="#6B7280" stroke-width="1"/><g><rect x="36" y="73" width="11" height="11" rx="1" fill="#E5E7EB" stroke="#9CA3AF" stroke-width="1.5"/><rect x="37.5" y="74.5" width="8" height="8" rx="0.5" fill="#9CA3AF" stroke="#6B7280" stroke-width="1"/><path d="&#10;          M 38.5 75.5&#10;          h 6&#10;          v 3.9000000000000004&#10;          h -1.9500000000000002&#10;          v 2.0999999999999996&#10;          h -2.0999999999999996&#10;          v -2.0999999999999996&#10;          h -1.9500000000000002&#10;          Z&#10;        " fill="#000000"/></g><g><rect x="52" y="73" width="11" height="11" rx="1" fill="#E5E7EB" stroke="#9CA3AF" stroke-width="1.5"/><rect x="53.5" y="74.5" width="8" height="8" rx="0.5" fill="#9CA3AF" stroke="#6B7280" stroke-width="1"/><path d="&#10;          M 54.5 75.5&#10;          h 6&#10;          v 3.9000000000000004&#10;          h -1.9500000000000002&#10;          v 2.0999999999999996&#10;          h -2.0999999999999996&#10;          v -2.0999999999999996&#10;          h -1.9500000000000002&#10;          Z&#10;        " fill="#000000"/></g><text x="50" y="98" font-family="Arial" font-size="7" fill="#374151" font-weight="bold" text-anchor="middle">cAP</text></svg>