<svg width="400" height="110" viewBox="0 0 400 110" xmlns="http://www.w3.org/2000/svg"><rect x="10" y="10" width="380" height="80" rx="12" fill="#4B5563" stroke="#374151" stroke-width="2"/><text x="25" y="30" font-family="Arial" font-size="12" fill="white" font-weight="bold" font-style="italic">MikroTik</text><text x="25" y="48" font-family="Arial" font-size="14" fill="white" font-weight="bold" letter-spacing="2">CCR2004-1G-12S+2XS</text><rect x="20" y="55" width="360" height="30" rx="2" fill="#9CA3AF" stroke="#6B7280" stroke-width="1"/><g><rect x="28" y="64" width="15" height="11" rx="1" fill="#A78BFA" stroke="#7C3AED" stroke-width="1.5"/><rect x="29.5" y="65.5" width="12" height="8" rx="0.5" fill="#1F2937" stroke="#4B5563" stroke-width="1"/><rect x="30.5" y="66.5" width="10" height="6" fill="#000000"/></g><g><rect x="46" y="64" width="15" height="11" rx="1" fill="#A78BFA" stroke="#7C3AED" stroke-width="1.5"/><rect x="47.5" y="65.5" width="12" height="8" rx="0.5" fill="#1F2937" stroke="#4B5563" stroke-width="1"/><rect x="48.5" y="66.5" width="10" height="6" fill="#000000"/></g><g><rect x="64" y="65" width="14" height="10" rx="1" fill="#9CA3AF" stroke="#6B7280" stroke-width="1.5"/><rect x="65.5" y="66.5" width="11" height="7" rx="0.5" fill="#1F2937" stroke="#4B5563" stroke-width="1"/><rect x="66.5" y="67.5" width="9" height="5" fill="#000000"/></g><g><rect x="80" y="65" width="14" height="10" rx="1" fill="#9CA3AF" stroke="#6B7280" stroke-width="1.5"/><rect x="81.5" y="66.5" width="11" height="7" rx="0.5" fill="#1F2937" stroke="#4B5563" stroke-width="1"/><rect x="82.5" y="67.5" width="9" height="5" fill="#000000"/></g><g><rect x="96" y="65" width="14" height="10" rx="1" fill="#9CA3AF" stroke="#6B7280" stroke-width="1.5"/><rect x="97.5" y="66.5" width="11" height="7" rx="0.5" fill="#1F2937" stroke="#4B5563" stroke-width="1"/><rect x="98.5" y="67.5" width="9" height="5" fill="#000000"/></g><g><rect x="112" y="65" width="14" height="10" rx="1" fill="#9CA3AF" stroke="#6B7280" stroke-width="1.5"/><rect x="113.5" y="66.5" width="11" height="7" rx="0.5" fill="#1F2937" stroke="#4B5563" stroke-width="1"/><rect x="114.5" y="67.5" width="9" height="5" fill="#000000"/></g><g><rect x="128" y="65" width="14" height="10" rx="1" fill="#9CA3AF" stroke="#6B7280" stroke-width="1.5"/><rect x="129.5" y="66.5" width="11" height="7" rx="0.5" fill="#1F2937" stroke="#4B5563" stroke-width="1"/><rect x="130.5" y="67.5" width="9" height="5" fill="#000000"/></g><g><rect x="144" y="65" width="14" height="10" rx="1" fill="#9CA3AF" stroke="#6B7280" stroke-width="1.5"/><rect x="145.5" y="66.5" width="11" height="7" rx="0.5" fill="#1F2937" stroke="#4B5563" stroke-width="1"/><rect x="146.5" y="67.5" width="9" height="5" fill="#000000"/></g><g><rect x="160" y="65" width="14" height="10" rx="1" fill="#9CA3AF" stroke="#6B7280" stroke-width="1.5"/><rect x="161.5" y="66.5" width="11" height="7" rx="0.5" fill="#1F2937" stroke="#4B5563" stroke-width="1"/><rect x="162.5" y="67.5" width="9" height="5" fill="#000000"/></g><g><rect x="176" y="65" width="14" height="10" rx="1" fill="#9CA3AF" stroke="#6B7280" stroke-width="1.5"/><rect x="177.5" y="66.5" width="11" height="7" rx="0.5" fill="#1F2937" stroke="#4B5563" stroke-width="1"/><rect x="178.5" y="67.5" width="9" height="5" fill="#000000"/></g><g><rect x="192" y="65" width="14" height="10" rx="1" fill="#9CA3AF" stroke="#6B7280" stroke-width="1.5"/><rect x="193.5" y="66.5" width="11" height="7" rx="0.5" fill="#1F2937" stroke="#4B5563" stroke-width="1"/><rect x="194.5" y="67.5" width="9" height="5" fill="#000000"/></g><g><rect x="208" y="65" width="14" height="10" rx="1" fill="#9CA3AF" stroke="#6B7280" stroke-width="1.5"/><rect x="209.5" y="66.5" width="11" height="7" rx="0.5" fill="#1F2937" stroke="#4B5563" stroke-width="1"/><rect x="210.5" y="67.5" width="9" height="5" fill="#000000"/></g><g><rect x="224" y="65" width="14" height="10" rx="1" fill="#9CA3AF" stroke="#6B7280" stroke-width="1.5"/><rect x="225.5" y="66.5" width="11" height="7" rx="0.5" fill="#1F2937" stroke="#4B5563" stroke-width="1"/><rect x="226.5" y="67.5" width="9" height="5" fill="#000000"/></g><g><rect x="240" y="65" width="14" height="10" rx="1" fill="#9CA3AF" stroke="#6B7280" stroke-width="1.5"/><rect x="241.5" y="66.5" width="11" height="7" rx="0.5" fill="#1F2937" stroke="#4B5563" stroke-width="1"/><rect x="242.5" y="67.5" width="9" height="5" fill="#000000"/></g><g><rect x="280" y="65" width="14" height="14" rx="1" fill="#E5E7EB" stroke="#9CA3AF" stroke-width="1.5"/><rect x="281.5" y="66.5" width="11" height="11" rx="0.5" fill="#9CA3AF" stroke="#6B7280" stroke-width="1"/><path d="&#10;          M 282.5 67.5&#10;          h 9&#10;          v 5.8500000000000005&#10;          h -2.925&#10;          v 3.15&#10;          h -3.15&#10;          v -3.15&#10;          h -2.925&#10;          Z&#10;        " fill="#000000"/></g><g><rect x="300" y="65" width="14" height="14" rx="1" fill="#E5E7EB" stroke="#9CA3AF" stroke-width="1.5"/><rect x="301.5" y="66.5" width="11" height="11" rx="0.5" fill="#9CA3AF" stroke="#6B7280" stroke-width="1"/><path d="&#10;          M 302.5 67.5&#10;          h 9&#10;          v 5.8500000000000005&#10;          h -2.925&#10;          v 3.15&#10;          h -3.15&#10;          v -3.15&#10;          h -2.925&#10;          Z&#10;        " fill="#000000"/></g><text x="200" y="103" font-family="Arial" font-size="8" fill="#374151" font-weight="bold" text-anchor="middle">CCR2004</text></svg>