<svg width="400" height="110" viewBox="0 0 400 110" xmlns="http://www.w3.org/2000/svg"><rect x="10" y="10" width="380" height="80" rx="12" fill="#4B5563" stroke="#374151" stroke-width="2"/><text x="25" y="30" font-family="Arial" font-size="12" fill="white" font-weight="bold" font-style="italic">MikroTik</text><text x="25" y="48" font-family="Arial" font-size="14" fill="white" font-weight="bold" letter-spacing="2">CCR2216-1G-12XS-2XQ</text><rect x="20" y="55" width="360" height="30" rx="2" fill="#9CA3AF" stroke="#6B7280" stroke-width="1"/><g><rect x="28" y="65" width="24" height="11" rx="1" fill="#FB923C" stroke="#EA580C" stroke-width="1.5"/><rect x="29.5" y="66.5" width="21" height="8" rx="0.5" fill="#1F2937" stroke="#4B5563" stroke-width="1"/><rect x="30.5" y="67.5" width="19" height="6" fill="#000000"/></g><g><rect x="56" y="65" width="24" height="11" rx="1" fill="#FB923C" stroke="#EA580C" stroke-width="1.5"/><rect x="57.5" y="66.5" width="21" height="8" rx="0.5" fill="#1F2937" stroke="#4B5563" stroke-width="1"/><rect x="58.5" y="67.5" width="19" height="6" fill="#000000"/></g><g><rect x="88" y="59" width="15" height="11" rx="1" fill="#A78BFA" stroke="#7C3AED" stroke-width="1.5"/><rect x="89.5" y="60.5" width="12" height="8" rx="0.5" fill="#1F2937" stroke="#4B5563" stroke-width="1"/><rect x="90.5" y="61.5" width="10" height="6" fill="#000000"/></g><g><rect x="106" y="59" width="15" height="11" rx="1" fill="#A78BFA" stroke="#7C3AED" stroke-width="1.5"/><rect x="107.5" y="60.5" width="12" height="8" rx="0.5" fill="#1F2937" stroke="#4B5563" stroke-width="1"/><rect x="108.5" y="61.5" width="10" height="6" fill="#000000"/></g><g><rect x="124" y="59" width="15" height="11" rx="1" fill="#A78BFA" stroke="#7C3AED" stroke-width="1.5"/><rect x="125.5" y="60.5" width="12" height="8" rx="0.5" fill="#1F2937" stroke="#4B5563" stroke-width="1"/><rect x="126.5" y="61.5" width="10" height="6" fill="#000000"/></g><g><rect x="142" y="59" width="15" height="11" rx="1" fill="#A78BFA" stroke="#7C3AED" stroke-width="1.5"/><rect x="143.5" y="60.5" width="12" height="8" rx="0.5" fill="#1F2937" stroke="#4B5563" stroke-width="1"/><rect x="144.5" y="61.5" width="10" height="6" fill="#000000"/></g><g><rect x="160" y="59" width="15" height="11" rx="1" fill="#A78BFA" stroke="#7C3AED" stroke-width="1.5"/><rect x="161.5" y="60.5" width="12" height="8" rx="0.5" fill="#1F2937" stroke="#4B5563" stroke-width="1"/><rect x="162.5" y="61.5" width="10" height="6" fill="#000000"/></g><g><rect x="178" y="59" width="15" height="11" rx="1" fill="#A78BFA" stroke="#7C3AED" stroke-width="1.5"/><rect x="179.5" y="60.5" width="12" height="8" rx="0.5" fill="#1F2937" stroke="#4B5563" stroke-width="1"/><rect x="180.5" y="61.5" width="10" height="6" fill="#000000"/></g><g><rect x="88" y="71" width="15" height="11" rx="1" fill="#A78BFA" stroke="#7C3AED" stroke-width="1.5"/><rect x="89.5" y="72.5" width="12" height="8" rx="0.5" fill="#1F2937" stroke="#4B5563" stroke-width="1"/><rect x="90.5" y="73.5" width="10" height="6" fill="#000000"/></g><g><rect x="106" y="71" width="15" height="11" rx="1" fill="#A78BFA" stroke="#7C3AED" stroke-width="1.5"/><rect x="107.5" y="72.5" width="12" height="8" rx="0.5" fill="#1F2937" stroke="#4B5563" stroke-width="1"/><rect x="108.5" y="73.5" width="10" height="6" fill="#000000"/></g><g><rect x="124" y="71" width="15" height="11" rx="1" fill="#A78BFA" stroke="#7C3AED" stroke-width="1.5"/><rect x="125.5" y="72.5" width="12" height="8" rx="0.5" fill="#1F2937" stroke="#4B5563" stroke-width="1"/><rect x="126.5" y="73.5" width="10" height="6" fill="#000000"/></g><g><rect x="142" y="71" width="15" height="11" rx="1" fill="#A78BFA" stroke="#7C3AED" stroke-width="1.5"/><rect x="143.5" y="72.5" width="12" height="8" rx="0.5" fill="#1F2937" stroke="#4B5563" stroke-width="1"/><rect x="144.5" y="73.5" width="10" height="6" fill="#000000"/></g><g><rect x="160" y="71" width="15" height="11" rx="1" fill="#A78BFA" stroke="#7C3AED" stroke-width="1.5"/><rect x="161.5" y="72.5" width="12" height="8" rx="0.5" fill="#1F2937" stroke="#4B5563" stroke-width="1"/><rect x="162.5" y="73.5" width="10" height="6" fill="#000000"/></g><g><rect x="178" y="71" width="15" height="11" rx="1" fill="#A78BFA" stroke="#7C3AED" stroke-width="1.5"/><rect x="179.5" y="72.5" width="12" height="8" rx="0.5" fill="#1F2937" stroke="#4B5563" stroke-width="1"/><rect x="180.5" y="73.5" width="10" height="6" fill="#000000"/></g><g><rect x="204" y="65" width="14" height="14" rx="1" fill="#E5E7EB" stroke="#9CA3AF" stroke-width="1.5"/><rect x="205.5" y="66.5" width="11" height="11" rx="0.5" fill="#9CA3AF" stroke="#6B7280" stroke-width="1"/><path d="&#10;          M 206.5 67.5&#10;          h 9&#10;          v 5.8500000000000005&#10;          h -2.925&#10;          v 3.15&#10;          h -3.15&#10;          v -3.15&#10;          h -2.925&#10;          Z&#10;        " fill="#000000"/></g><g><rect x="224" y="65" width="14" height="14" rx="1" fill="#E5E7EB" stroke="#9CA3AF" stroke-width="1.5"/><rect x="225.5" y="66.5" width="11" height="11" rx="0.5" fill="#9CA3AF" stroke="#6B7280" stroke-width="1"/><path d="&#10;          M 226.5 67.5&#10;          h 9&#10;          v 5.8500000000000005&#10;          h -2.925&#10;          v 3.15&#10;          h -3.15&#10;          v -3.15&#10;          h -2.925&#10;          Z&#10;        " fill="#000000"/></g><text x="200" y="103" font-family="Arial" font-size="8" fill="#374151" font-weight="bold" text-anchor="middle">CCR2216</text></svg>