<svg width="400" height="110" viewBox="0 0 400 110" xmlns="http://www.w3.org/2000/svg"><rect x="10" y="10" width="380" height="80" rx="12" fill="#4B5563" stroke="#374151" stroke-width="2"/><text x="25" y="30" font-family="Arial" font-size="12" fill="white" font-weight="bold" font-style="italic">MikroTik</text><text x="25" y="48" font-family="Arial" font-size="14" fill="white" font-weight="bold" letter-spacing="2">CCR2004-16G-2S+</text><rect x="20" y="52" width="360" height="33" rx="2" fill="#9CA3AF" stroke="#6B7280" stroke-width="1"/><g><rect x="28" y="62" width="14" height="10" rx="1" fill="#9CA3AF" stroke="#6B7280" stroke-width="1.5"/><rect x="29.5" y="63.5" width="11" height="7" rx="0.5" fill="#1F2937" stroke="#4B5563" stroke-width="1"/><rect x="30.5" y="64.5" width="9" height="5" fill="#000000"/></g><g><rect x="46" y="62" width="14" height="10" rx="1" fill="#9CA3AF" stroke="#6B7280" stroke-width="1.5"/><rect x="47.5" y="63.5" width="11" height="7" rx="0.5" fill="#1F2937" stroke="#4B5563" stroke-width="1"/><rect x="48.5" y="64.5" width="9" height="5" fill="#000000"/></g><g><rect x="64" y="56" width="11" height="11" rx="1" fill="#E5E7EB" stroke="#9CA3AF" stroke-width="1.5"/><rect x="65.5" y="57.5" width="8" height="8" rx="0.5" fill="#9CA3AF" stroke="#6B7280" stroke-width="1"/><path d="&#10;          M 66.5 58.5&#10;          h 6&#10;          v 3.9000000000000004&#10;          h -1.9500000000000002&#10;          v 2.0999999999999996&#10;          h -2.0999999999999996&#10;          v -2.0999999999999996&#10;          h -1.9500000000000002&#10;          Z&#10;        " fill="#000000"/></g><g><rect x="82" y="56" width="11" height="11" rx="1" fill="#E5E7EB" stroke="#9CA3AF" stroke-width="1.5"/><rect x="83.5" y="57.5" width="8" height="8" rx="0.5" fill="#9CA3AF" stroke="#6B7280" stroke-width="1"/><path d="&#10;          M 84.5 58.5&#10;          h 6&#10;          v 3.9000000000000004&#10;          h -1.9500000000000002&#10;          v 2.0999999999999996&#10;          h -2.0999999999999996&#10;          v -2.0999999999999996&#10;          h -1.9500000000000002&#10;          Z&#10;        " fill="#000000"/></g><g><rect x="100" y="56" width="11" height="11" rx="1" fill="#E5E7EB" stroke="#9CA3AF" stroke-width="1.5"/><rect x="101.5" y="57.5" width="8" height="8" rx="0.5" fill="#9CA3AF" stroke="#6B7280" stroke-width="1"/><path d="&#10;          M 102.5 58.5&#10;          h 6&#10;          v 3.9000000000000004&#10;          h -1.9500000000000002&#10;          v 2.0999999999999996&#10;          h -2.0999999999999996&#10;          v -2.0999999999999996&#10;          h -1.9500000000000002&#10;          Z&#10;        " fill="#000000"/></g><g><rect x="118" y="56" width="11" height="11" rx="1" fill="#E5E7EB" stroke="#9CA3AF" stroke-width="1.5"/><rect x="119.5" y="57.5" width="8" height="8" rx="0.5" fill="#9CA3AF" stroke="#6B7280" stroke-width="1"/><path d="&#10;          M 120.5 58.5&#10;          h 6&#10;          v 3.9000000000000004&#10;          h -1.9500000000000002&#10;          v 2.0999999999999996&#10;          h -2.0999999999999996&#10;          v -2.0999999999999996&#10;          h -1.9500000000000002&#10;          Z&#10;        " fill="#000000"/></g><g><rect x="136" y="56" width="11" height="11" rx="1" fill="#E5E7EB" stroke="#9CA3AF" stroke-width="1.5"/><rect x="137.5" y="57.5" width="8" height="8" rx="0.5" fill="#9CA3AF" stroke="#6B7280" stroke-width="1"/><path d="&#10;          M 138.5 58.5&#10;          h 6&#10;          v 3.9000000000000004&#10;          h -1.9500000000000002&#10;          v 2.0999999999999996&#10;          h -2.0999999999999996&#10;          v -2.0999999999999996&#10;          h -1.9500000000000002&#10;          Z&#10;        " fill="#000000"/></g><g><rect x="154" y="56" width="11" height="11" rx="1" fill="#E5E7EB" stroke="#9CA3AF" stroke-width="1.5"/><rect x="155.5" y="57.5" width="8" height="8" rx="0.5" fill="#9CA3AF" stroke="#6B7280" stroke-width="1"/><path d="&#10;          M 156.5 58.5&#10;          h 6&#10;          v 3.9000000000000004&#10;          h -1.9500000000000002&#10;          v 2.0999999999999996&#10;          h -2.0999999999999996&#10;          v -2.0999999999999996&#10;          h -1.9500000000000002&#10;          Z&#10;        " fill="#000000"/></g><g><rect x="172" y="56" width="11" height="11" rx="1" fill="#E5E7EB" stroke="#9CA3AF" stroke-width="1.5"/><rect x="173.5" y="57.5" width="8" height="8" rx="0.5" fill="#9CA3AF" stroke="#6B7280" stroke-width="1"/><path d="&#10;          M 174.5 58.5&#10;          h 6&#10;          v 3.9000000000000004&#10;          h -1.9500000000000002&#10;          v 2.0999999999999996&#10;          h -2.0999999999999996&#10;          v -2.0999999999999996&#10;          h -1.9500000000000002&#10;          Z&#10;        " fill="#000000"/></g><g><rect x="190" y="56" width="11" height="11" rx="1" fill="#E5E7EB" stroke="#9CA3AF" stroke-width="1.5"/><rect x="191.5" y="57.5" width="8" height="8" rx="0.5" fill="#9CA3AF" stroke="#6B7280" stroke-width="1"/><path d="&#10;          M 192.5 58.5&#10;          h 6&#10;          v 3.9000000000000004&#10;          h -1.9500000000000002&#10;          v 2.0999999999999996&#10;          h -2.0999999999999996&#10;          v -2.0999999999999996&#10;          h -1.9500000000000002&#10;          Z&#10;        " fill="#000000"/></g><g><rect x="64" y="70" width="11" height="11" rx="1" fill="#E5E7EB" stroke="#9CA3AF" stroke-width="1.5"/><rect x="65.5" y="71.5" width="8" height="8" rx="0.5" fill="#9CA3AF" stroke="#6B7280" stroke-width="1"/><path d="&#10;          M 66.5 72.5&#10;          h 6&#10;          v 3.9000000000000004&#10;          h -1.9500000000000002&#10;          v 2.0999999999999996&#10;          h -2.0999999999999996&#10;          v -2.0999999999999996&#10;          h -1.9500000000000002&#10;          Z&#10;        " fill="#000000"/></g><g><rect x="82" y="70" width="11" height="11" rx="1" fill="#E5E7EB" stroke="#9CA3AF" stroke-width="1.5"/><rect x="83.5" y="71.5" width="8" height="8" rx="0.5" fill="#9CA3AF" stroke="#6B7280" stroke-width="1"/><path d="&#10;          M 84.5 72.5&#10;          h 6&#10;          v 3.9000000000000004&#10;          h -1.9500000000000002&#10;          v 2.0999999999999996&#10;          h -2.0999999999999996&#10;          v -2.0999999999999996&#10;          h -1.9500000000000002&#10;          Z&#10;        " fill="#000000"/></g><g><rect x="100" y="70" width="11" height="11" rx="1" fill="#E5E7EB" stroke="#9CA3AF" stroke-width="1.5"/><rect x="101.5" y="71.5" width="8" height="8" rx="0.5" fill="#9CA3AF" stroke="#6B7280" stroke-width="1"/><path d="&#10;          M 102.5 72.5&#10;          h 6&#10;          v 3.9000000000000004&#10;          h -1.9500000000000002&#10;          v 2.0999999999999996&#10;          h -2.0999999999999996&#10;          v -2.0999999999999996&#10;          h -1.9500000000000002&#10;          Z&#10;        " fill="#000000"/></g><g><rect x="118" y="70" width="11" height="11" rx="1" fill="#E5E7EB" stroke="#9CA3AF" stroke-width="1.5"/><rect x="119.5" y="71.5" width="8" height="8" rx="0.5" fill="#9CA3AF" stroke="#6B7280" stroke-width="1"/><path d="&#10;          M 120.5 72.5&#10;          h 6&#10;          v 3.9000000000000004&#10;          h -1.9500000000000002&#10;          v 2.0999999999999996&#10;          h -2.0999999999999996&#10;          v -2.0999999999999996&#10;          h -1.9500000000000002&#10;          Z&#10;        " fill="#000000"/></g><g><rect x="136" y="70" width="11" height="11" rx="1" fill="#E5E7EB" stroke="#9CA3AF" stroke-width="1.5"/><rect x="137.5" y="71.5" width="8" height="8" rx="0.5" fill="#9CA3AF" stroke="#6B7280" stroke-width="1"/><path d="&#10;          M 138.5 72.5&#10;          h 6&#10;          v 3.9000000000000004&#10;          h -1.9500000000000002&#10;          v 2.0999999999999996&#10;          h -2.0999999999999996&#10;          v -2.0999999999999996&#10;          h -1.9500000000000002&#10;          Z&#10;        " fill="#000000"/></g><g><rect x="154" y="70" width="11" height="11" rx="1" fill="#E5E7EB" stroke="#9CA3AF" stroke-width="1.5"/><rect x="155.5" y="71.5" width="8" height="8" rx="0.5" fill="#9CA3AF" stroke="#6B7280" stroke-width="1"/><path d="&#10;          M 156.5 72.5&#10;          h 6&#10;          v 3.9000000000000004&#10;          h -1.9500000000000002&#10;          v 2.0999999999999996&#10;          h -2.0999999999999996&#10;          v -2.0999999999999996&#10;          h -1.9500000000000002&#10;          Z&#10;        " fill="#000000"/></g><g><rect x="172" y="70" width="11" height="11" rx="1" fill="#E5E7EB" stroke="#9CA3AF" stroke-width="1.5"/><rect x="173.5" y="71.5" width="8" height="8" rx="0.5" fill="#9CA3AF" stroke="#6B7280" stroke-width="1"/><path d="&#10;          M 174.5 72.5&#10;          h 6&#10;          v 3.9000000000000004&#10;          h -1.9500000000000002&#10;          v 2.0999999999999996&#10;          h -2.0999999999999996&#10;          v -2.0999999999999996&#10;          h -1.9500000000000002&#10;          Z&#10;        " fill="#000000"/></g><g><rect x="190" y="70" width="11" height="11" rx="1" fill="#E5E7EB" stroke="#9CA3AF" stroke-width="1.5"/><rect x="191.5" y="71.5" width="8" height="8" rx="0.5" fill="#9CA3AF" stroke="#6B7280" stroke-width="1"/><path d="&#10;          M 192.5 72.5&#10;          h 6&#10;          v 3.9000000000000004&#10;          h -1.9500000000000002&#10;          v 2.0999999999999996&#10;          h -2.0999999999999996&#10;          v -2.0999999999999996&#10;          h -1.9500000000000002&#10;          Z&#10;        " fill="#000000"/></g><g><rect x="212" y="63" width="11" height="11" rx="1" fill="#E5E7EB" stroke="#9CA3AF" stroke-width="1.5"/><rect x="213.5" y="64.5" width="8" height="8" rx="0.5" fill="#9CA3AF" stroke="#6B7280" stroke-width="1"/><path d="&#10;          M 214.5 65.5&#10;          h 6&#10;          v 3.9000000000000004&#10;          h -1.9500000000000002&#10;          v 2.0999999999999996&#10;          h -2.0999999999999996&#10;          v -2.0999999999999996&#10;          h -1.9500000000000002&#10;          Z&#10;        " fill="#000000"/></g><text x="200" y="103" font-family="Arial" font-size="8" fill="#374151" font-weight="bold" text-anchor="middle">CCR2004</text></svg>