<svg width="200" height="110" viewBox="0 0 200 110" xmlns="http://www.w3.org/2000/svg"><rect x="10" y="10" width="180" height="80" rx="12" fill="#4B5563" stroke="#374151" stroke-width="2"/><text x="25" y="30" font-family="Arial" font-size="12" fill="white" font-weight="bold" font-style="italic">MikroTik</text><text x="25" y="48" font-family="Arial" font-size="14" fill="white" font-weight="bold" letter-spacing="2">CRS112-8P-4S</text><rect x="20" y="52" width="160" height="33" rx="2" fill="#9CA3AF" stroke="#6B7280" stroke-width="1"/><g><rect x="25" y="58" width="11" height="11" rx="1" fill="#FFD700" stroke="#FFA500" stroke-width="1.5"/><rect x="26.5" y="59.5" width="8" height="8" rx="0.5" fill="#9CA3AF" stroke="#6B7280" stroke-width="1"/><path d="&#10;          M 27.5 60.5&#10;          h 6&#10;          v 3.9000000000000004&#10;          h -1.9500000000000002&#10;          v 2.0999999999999996&#10;          h -2.0999999999999996&#10;          v -2.0999999999999996&#10;          h -1.9500000000000002&#10;          Z&#10;        " fill="#000000"/></g><g><rect x="43" y="58" width="11" height="11" rx="1" fill="#FFD700" stroke="#FFA500" stroke-width="1.5"/><rect x="44.5" y="59.5" width="8" height="8" rx="0.5" fill="#9CA3AF" stroke="#6B7280" stroke-width="1"/><path d="&#10;          M 45.5 60.5&#10;          h 6&#10;          v 3.9000000000000004&#10;          h -1.9500000000000002&#10;          v 2.0999999999999996&#10;          h -2.0999999999999996&#10;          v -2.0999999999999996&#10;          h -1.9500000000000002&#10;          Z&#10;        " fill="#000000"/></g><g><rect x="61" y="58" width="11" height="11" rx="1" fill="#FFD700" stroke="#FFA500" stroke-width="1.5"/><rect x="62.5" y="59.5" width="8" height="8" rx="0.5" fill="#9CA3AF" stroke="#6B7280" stroke-width="1"/><path d="&#10;          M 63.5 60.5&#10;          h 6&#10;          v 3.9000000000000004&#10;          h -1.9500000000000002&#10;          v 2.0999999999999996&#10;          h -2.0999999999999996&#10;          v -2.0999999999999996&#10;          h -1.9500000000000002&#10;          Z&#10;        " fill="#000000"/></g><g><rect x="79" y="58" width="11" height="11" rx="1" fill="#FFD700" stroke="#FFA500" stroke-width="1.5"/><rect x="80.5" y="59.5" width="8" height="8" rx="0.5" fill="#9CA3AF" stroke="#6B7280" stroke-width="1"/><path d="&#10;          M 81.5 60.5&#10;          h 6&#10;          v 3.9000000000000004&#10;          h -1.9500000000000002&#10;          v 2.0999999999999996&#10;          h -2.0999999999999996&#10;          v -2.0999999999999996&#10;          h -1.9500000000000002&#10;          Z&#10;        " fill="#000000"/></g><g><rect x="25" y="71" width="11" height="11" rx="1" fill="#FFD700" stroke="#FFA500" stroke-width="1.5"/><rect x="26.5" y="72.5" width="8" height="8" rx="0.5" fill="#9CA3AF" stroke="#6B7280" stroke-width="1"/><path d="&#10;          M 27.5 73.5&#10;          h 6&#10;          v 3.9000000000000004&#10;          h -1.9500000000000002&#10;          v 2.0999999999999996&#10;          h -2.0999999999999996&#10;          v -2.0999999999999996&#10;          h -1.9500000000000002&#10;          Z&#10;        " fill="#000000"/></g><g><rect x="43" y="71" width="11" height="11" rx="1" fill="#FFD700" stroke="#FFA500" stroke-width="1.5"/><rect x="44.5" y="72.5" width="8" height="8" rx="0.5" fill="#9CA3AF" stroke="#6B7280" stroke-width="1"/><path d="&#10;          M 45.5 73.5&#10;          h 6&#10;          v 3.9000000000000004&#10;          h -1.9500000000000002&#10;          v 2.0999999999999996&#10;          h -2.0999999999999996&#10;          v -2.0999999999999996&#10;          h -1.9500000000000002&#10;          Z&#10;        " fill="#000000"/></g><g><rect x="61" y="71" width="11" height="11" rx="1" fill="#FFD700" stroke="#FFA500" stroke-width="1.5"/><rect x="62.5" y="72.5" width="8" height="8" rx="0.5" fill="#9CA3AF" stroke="#6B7280" stroke-width="1"/><path d="&#10;          M 63.5 73.5&#10;          h 6&#10;          v 3.9000000000000004&#10;          h -1.9500000000000002&#10;          v 2.0999999999999996&#10;          h -2.0999999999999996&#10;          v -2.0999999999999996&#10;          h -1.9500000000000002&#10;          Z&#10;        " fill="#000000"/></g><g><rect x="79" y="71" width="11" height="11" rx="1" fill="#FFD700" stroke="#FFA500" stroke-width="1.5"/><rect x="80.5" y="72.5" width="8" height="8" rx="0.5" fill="#9CA3AF" stroke="#6B7280" stroke-width="1"/><path d="&#10;          M 81.5 73.5&#10;          h 6&#10;          v 3.9000000000000004&#10;          h -1.9500000000000002&#10;          v 2.0999999999999996&#10;          h -2.0999999999999996&#10;          v -2.0999999999999996&#10;          h -1.9500000000000002&#10;          Z&#10;        " fill="#000000"/></g><g><rect x="115" y="58" width="14" height="10" rx="1" fill="#D1D5DB" stroke="#9CA3AF" stroke-width="1.5"/><rect x="116.5" y="59.5" width="11" height="7" rx="0.5" fill="#1F2937" stroke="#4B5563" stroke-width="1"/><rect x="117.5" y="60.5" width="9" height="5" fill="#000000"/></g><g><rect x="135" y="58" width="14" height="10" rx="1" fill="#D1D5DB" stroke="#9CA3AF" stroke-width="1.5"/><rect x="136.5" y="59.5" width="11" height="7" rx="0.5" fill="#1F2937" stroke="#4B5563" stroke-width="1"/><rect x="137.5" y="60.5" width="9" height="5" fill="#000000"/></g><g><rect x="115" y="71" width="14" height="10" rx="1" fill="#D1D5DB" stroke="#9CA3AF" stroke-width="1.5"/><rect x="116.5" y="72.5" width="11" height="7" rx="0.5" fill="#1F2937" stroke="#4B5563" stroke-width="1"/><rect x="117.5" y="73.5" width="9" height="5" fill="#000000"/></g><g><rect x="135" y="71" width="14" height="10" rx="1" fill="#D1D5DB" stroke="#9CA3AF" stroke-width="1.5"/><rect x="136.5" y="72.5" width="11" height="7" rx="0.5" fill="#1F2937" stroke="#4B5563" stroke-width="1"/><rect x="137.5" y="73.5" width="9" height="5" fill="#000000"/></g><text x="100" y="103" font-family="Arial" font-size="8" fill="#374151" font-weight="bold" text-anchor="middle">CRS112</text></svg>