<svg width="200" height="110" viewBox="0 0 200 110" xmlns="http://www.w3.org/2000/svg"><rect x="10" y="10" width="180" height="80" rx="12" fill="#4B5563" stroke="#374151" stroke-width="2"/><text x="25" y="30" font-family="Arial" font-size="12" fill="white" font-weight="bold" font-style="italic">MikroTik</text><text x="18" y="48" font-family="Arial" font-size="14" fill="white" font-weight="bold" letter-spacing="2">CRS212-1G-10S-1S+</text><rect x="20" y="55" width="160" height="30" rx="2" fill="#9CA3AF" stroke="#6B7280" stroke-width="1"/><g><rect x="25" y="67" width="11" height="11" rx="1" fill="#E5E7EB" stroke="#9CA3AF" stroke-width="1.5"/><rect x="26.5" y="68.5" width="8" height="8" rx="0.5" fill="#9CA3AF" stroke="#6B7280" stroke-width="1"/><path d="&#10;          M 27.5 69.5&#10;          h 6&#10;          v 3.9000000000000004&#10;          h -1.9500000000000002&#10;          v 2.0999999999999996&#10;          h -2.0999999999999996&#10;          v -2.0999999999999996&#10;          h -1.9500000000000002&#10;          Z&#10;        " fill="#000000"/></g><g><rect x="45" y="60" width="14" height="10" rx="1" fill="#D1D5DB" stroke="#9CA3AF" stroke-width="1.5"/><rect x="46.5" y="61.5" width="11" height="7" rx="0.5" fill="#1F2937" stroke="#4B5563" stroke-width="1"/><rect x="47.5" y="62.5" width="9" height="5" fill="#000000"/></g><g><rect x="61" y="60" width="14" height="10" rx="1" fill="#D1D5DB" stroke="#9CA3AF" stroke-width="1.5"/><rect x="62.5" y="61.5" width="11" height="7" rx="0.5" fill="#1F2937" stroke="#4B5563" stroke-width="1"/><rect x="63.5" y="62.5" width="9" height="5" fill="#000000"/></g><g><rect x="77" y="60" width="14" height="10" rx="1" fill="#D1D5DB" stroke="#9CA3AF" stroke-width="1.5"/><rect x="78.5" y="61.5" width="11" height="7" rx="0.5" fill="#1F2937" stroke="#4B5563" stroke-width="1"/><rect x="79.5" y="62.5" width="9" height="5" fill="#000000"/></g><g><rect x="93" y="60" width="14" height="10" rx="1" fill="#D1D5DB" stroke="#9CA3AF" stroke-width="1.5"/><rect x="94.5" y="61.5" width="11" height="7" rx="0.5" fill="#1F2937" stroke="#4B5563" stroke-width="1"/><rect x="95.5" y="62.5" width="9" height="5" fill="#000000"/></g><g><rect x="109" y="60" width="14" height="10" rx="1" fill="#D1D5DB" stroke="#9CA3AF" stroke-width="1.5"/><rect x="110.5" y="61.5" width="11" height="7" rx="0.5" fill="#1F2937" stroke="#4B5563" stroke-width="1"/><rect x="111.5" y="62.5" width="9" height="5" fill="#000000"/></g><g><rect x="45" y="73" width="14" height="10" rx="1" fill="#D1D5DB" stroke="#9CA3AF" stroke-width="1.5"/><rect x="46.5" y="74.5" width="11" height="7" rx="0.5" fill="#1F2937" stroke="#4B5563" stroke-width="1"/><rect x="47.5" y="75.5" width="9" height="5" fill="#000000"/></g><g><rect x="61" y="73" width="14" height="10" rx="1" fill="#D1D5DB" stroke="#9CA3AF" stroke-width="1.5"/><rect x="62.5" y="74.5" width="11" height="7" rx="0.5" fill="#1F2937" stroke="#4B5563" stroke-width="1"/><rect x="63.5" y="75.5" width="9" height="5" fill="#000000"/></g><g><rect x="77" y="73" width="14" height="10" rx="1" fill="#D1D5DB" stroke="#9CA3AF" stroke-width="1.5"/><rect x="78.5" y="74.5" width="11" height="7" rx="0.5" fill="#1F2937" stroke="#4B5563" stroke-width="1"/><rect x="79.5" y="75.5" width="9" height="5" fill="#000000"/></g><g><rect x="93" y="73" width="14" height="10" rx="1" fill="#D1D5DB" stroke="#9CA3AF" stroke-width="1.5"/><rect x="94.5" y="74.5" width="11" height="7" rx="0.5" fill="#1F2937" stroke="#4B5563" stroke-width="1"/><rect x="95.5" y="75.5" width="9" height="5" fill="#000000"/></g><g><rect x="109" y="73" width="14" height="10" rx="1" fill="#D1D5DB" stroke="#9CA3AF" stroke-width="1.5"/><rect x="110.5" y="74.5" width="11" height="7" rx="0.5" fill="#1F2937" stroke="#4B5563" stroke-width="1"/><rect x="111.5" y="75.5" width="9" height="5" fill="#000000"/></g><g><rect x="135" y="67" width="14" height="10" rx="1" fill="#9CA3AF" stroke="#6B7280" stroke-width="1.5"/><rect x="136.5" y="68.5" width="11" height="7" rx="0.5" fill="#1F2937" stroke="#4B5563" stroke-width="1"/><rect x="137.5" y="69.5" width="9" height="5" fill="#000000"/></g><g><rect x="165" y="67" width="11" height="11" rx="1" fill="#E5E7EB" stroke="#9CA3AF" stroke-width="1.5"/><rect x="166.5" y="68.5" width="8" height="8" rx="0.5" fill="#9CA3AF" stroke="#6B7280" stroke-width="1"/><path d="&#10;          M 167.5 69.5&#10;          h 6&#10;          v 3.9000000000000004&#10;          h -1.9500000000000002&#10;          v 2.0999999999999996&#10;          h -2.0999999999999996&#10;          v -2.0999999999999996&#10;          h -1.9500000000000002&#10;          Z&#10;        " fill="#000000"/></g><text x="100" y="103" font-family="Arial" font-size="8" fill="#374151" font-weight="bold" text-anchor="middle">CRS212</text></svg>