<svg width="200" height="65" viewBox="0 0 200 65" xmlns="http://www.w3.org/2000/svg"><rect x="10" y="10" width="180" height="45" rx="10" fill="#4B5563" stroke="#374151" stroke-width="2"/><text x="25" y="30" font-family="Arial" font-size="10" fill="white" font-weight="bold" font-style="italic">MikroTik</text><text x="80" y="30" font-family="Arial" font-size="12" fill="white" font-weight="bold" letter-spacing="2">hAP ax³</text><rect x="20" y="38" width="160" height="14" rx="1" fill="#9CA3AF" stroke="#6B7280" stroke-width="1"/><g><rect x="30" y="40" width="11" height="11" rx="1" fill="#A78BFA" stroke="#7C3AED" stroke-width="1.5"/><rect x="31.5" y="41.5" width="8" height="8" rx="0.5" fill="#9CA3AF" stroke="#6B7280" stroke-width="1"/><path d="&#10;          M 32.5 42.5&#10;          h 6&#10;          v 3.9000000000000004&#10;          h -1.9500000000000002&#10;          v 2.0999999999999996&#10;          h -2.0999999999999996&#10;          v -2.0999999999999996&#10;          h -1.9500000000000002&#10;          Z&#10;        " fill="#000000"/></g><g><rect x="46" y="40" width="11" height="11" rx="1" fill="#E5E7EB" stroke="#9CA3AF" stroke-width="1.5"/><rect x="47.5" y="41.5" width="8" height="8" rx="0.5" fill="#9CA3AF" stroke="#6B7280" stroke-width="1"/><path d="&#10;          M 48.5 42.5&#10;          h 6&#10;          v 3.9000000000000004&#10;          h -1.9500000000000002&#10;          v 2.0999999999999996&#10;          h -2.0999999999999996&#10;          v -2.0999999999999996&#10;          h -1.9500000000000002&#10;          Z&#10;        " fill="#000000"/></g><g><rect x="62" y="40" width="11" height="11" rx="1" fill="#E5E7EB" stroke="#9CA3AF" stroke-width="1.5"/><rect x="63.5" y="41.5" width="8" height="8" rx="0.5" fill="#9CA3AF" stroke="#6B7280" stroke-width="1"/><path d="&#10;          M 64.5 42.5&#10;          h 6&#10;          v 3.9000000000000004&#10;          h -1.9500000000000002&#10;          v 2.0999999999999996&#10;          h -2.0999999999999996&#10;          v -2.0999999999999996&#10;          h -1.9500000000000002&#10;          Z&#10;        " fill="#000000"/></g><g><rect x="78" y="40" width="11" height="11" rx="1" fill="#E5E7EB" stroke="#9CA3AF" stroke-width="1.5"/><rect x="79.5" y="41.5" width="8" height="8" rx="0.5" fill="#9CA3AF" stroke="#6B7280" stroke-width="1"/><path d="&#10;          M 80.5 42.5&#10;          h 6&#10;          v 3.9000000000000004&#10;          h -1.9500000000000002&#10;          v 2.0999999999999996&#10;          h -2.0999999999999996&#10;          v -2.0999999999999996&#10;          h -1.9500000000000002&#10;          Z&#10;        " fill="#000000"/></g><g><rect x="94" y="40" width="11" height="11" rx="1" fill="#E5E7EB" stroke="#9CA3AF" stroke-width="1.5"/><rect x="95.5" y="41.5" width="8" height="8" rx="0.5" fill="#9CA3AF" stroke="#6B7280" stroke-width="1"/><path d="&#10;          M 96.5 42.5&#10;          h 6&#10;          v 3.9000000000000004&#10;          h -1.9500000000000002&#10;          v 2.0999999999999996&#10;          h -2.0999999999999996&#10;          v -2.0999999999999996&#10;          h -1.9500000000000002&#10;          Z&#10;        " fill="#000000"/></g><text x="100" y="63" font-family="Arial" font-size="8" fill="#374151" font-weight="bold" text-anchor="middle">hAP ax³</text></svg>