<svg width="110" height="110" viewBox="0 0 110 110" xmlns="http://www.w3.org/2000/svg"><rect x="15" y="15" width="80" height="80" rx="8" fill="#4B5563" stroke="#374151" stroke-width="2"/><text x="55" y="32" font-family="Arial" font-size="9" fill="white" font-weight="bold" font-style="italic" text-anchor="middle">MikroTik</text><text x="55" y="47" font-family="Arial" font-size="11" fill="white" font-weight="bold" text-anchor="middle">hAP ax</text><text x="55" y="58" font-family="Arial" font-size="11" fill="white" font-weight="bold" text-anchor="middle">lite</text><circle cx="55" cy="68" r="2.5" fill="none" stroke="white" stroke-width="1.5"/><circle cx="55" cy="68" r="5" fill="none" stroke="white" stroke-width="1.5" opacity="0.7"/><text x="55" y="78" font-family="Arial" font-size="6" fill="white" font-weight="bold" text-anchor="middle">WiFi 6</text><rect x="27" y="82" width="56" height="10" rx="1" fill="#9CA3AF" stroke="#6B7280" stroke-width="1"/><g><rect x="29" y="83" width="11" height="11" rx="1" fill="#E5E7EB" stroke="#9CA3AF" stroke-width="1.5"/><rect x="30.5" y="84.5" width="8" height="8" rx="0.5" fill="#9CA3AF" stroke="#6B7280" stroke-width="1"/><path d="&#10;          M 31.5 85.5&#10;          h 6&#10;          v 3.9000000000000004&#10;          h -1.9500000000000002&#10;          v 2.0999999999999996&#10;          h -2.0999999999999996&#10;          v -2.0999999999999996&#10;          h -1.9500000000000002&#10;          Z&#10;        " fill="#000000"/></g><g><rect x="42" y="83" width="11" height="11" rx="1" fill="#E5E7EB" stroke="#9CA3AF" stroke-width="1.5"/><rect x="43.5" y="84.5" width="8" height="8" rx="0.5" fill="#9CA3AF" stroke="#6B7280" stroke-width="1"/><path d="&#10;          M 44.5 85.5&#10;          h 6&#10;          v 3.9000000000000004&#10;          h -1.9500000000000002&#10;          v 2.0999999999999996&#10;          h -2.0999999999999996&#10;          v -2.0999999999999996&#10;          h -1.9500000000000002&#10;          Z&#10;        " fill="#000000"/></g><g><rect x="55" y="83" width="11" height="11" rx="1" fill="#E5E7EB" stroke="#9CA3AF" stroke-width="1.5"/><rect x="56.5" y="84.5" width="8" height="8" rx="0.5" fill="#9CA3AF" stroke="#6B7280" stroke-width="1"/><path d="&#10;          M 57.5 85.5&#10;          h 6&#10;          v 3.9000000000000004&#10;          h -1.9500000000000002&#10;          v 2.0999999999999996&#10;          h -2.0999999999999996&#10;          v -2.0999999999999996&#10;          h -1.9500000000000002&#10;          Z&#10;        " fill="#000000"/></g><g><rect x="68" y="83" width="11" height="11" rx="1" fill="#E5E7EB" stroke="#9CA3AF" stroke-width="1.5"/><rect x="69.5" y="84.5" width="8" height="8" rx="0.5" fill="#9CA3AF" stroke="#6B7280" stroke-width="1"/><path d="&#10;          M 70.5 85.5&#10;          h 6&#10;          v 3.9000000000000004&#10;          h -1.9500000000000002&#10;          v 2.0999999999999996&#10;          h -2.0999999999999996&#10;          v -2.0999999999999996&#10;          h -1.9500000000000002&#10;          Z&#10;        " fill="#000000"/></g><text x="55" y="103" font-family="Arial" font-size="7" fill="#374151" font-weight="bold" text-anchor="middle">hAP ax lite</text></svg>