<svg width="90" height="75" viewBox="0 0 90 75" xmlns="http://www.w3.org/2000/svg"><rect x="10" y="10" width="70" height="50" rx="10" fill="#4B5563" stroke="#374151" stroke-width="2"/><text x="15" y="24" font-family="Arial" font-size="8" fill="white" font-weight="bold" font-style="italic">MikroTik</text><text x="15" y="35" font-family="Arial" font-size="8" fill="white" font-weight="bold" letter-spacing="1">PoE Injector</text><rect x="15" y="42" width="60" height="14" rx="1" fill="#9CA3AF" stroke="#6B7280" stroke-width="1"/><g><rect x="25" y="44" width="11" height="11" rx="1" fill="#E5E7EB" stroke="#9CA3AF" stroke-width="1.5"/><rect x="26.5" y="45.5" width="8" height="8" rx="0.5" fill="#9CA3AF" stroke="#6B7280" stroke-width="1"/><path d="&#10;          M 27.5 46.5&#10;          h 6&#10;          v 3.9000000000000004&#10;          h -1.9500000000000002&#10;          v 2.0999999999999996&#10;          h -2.0999999999999996&#10;          v -2.0999999999999996&#10;          h -1.9500000000000002&#10;          Z&#10;        " fill="#000000"/></g><text x="30.5" y="41" font-family="Arial" font-size="5" fill="#374151" font-weight="bold" text-anchor="middle">IN</text><g><rect x="50" y="44" width="11" height="11" rx="1" fill="#FFD700" stroke="#FFA500" stroke-width="1.5"/><rect x="51.5" y="45.5" width="8" height="8" rx="0.5" fill="#9CA3AF" stroke="#6B7280" stroke-width="1"/><path d="&#10;          M 52.5 46.5&#10;          h 6&#10;          v 3.9000000000000004&#10;          h -1.9500000000000002&#10;          v 2.0999999999999996&#10;          h -2.0999999999999996&#10;          v -2.0999999999999996&#10;          h -1.9500000000000002&#10;          Z&#10;        " fill="#000000"/></g><text x="55.5" y="41" font-family="Arial" font-size="5" fill="#374151" font-weight="bold" text-anchor="middle">OUT</text><text x="45" y="68" font-family="Arial" font-size="7" fill="#374151" font-weight="bold" text-anchor="middle">PoE Injector</text></svg>