<svg width="80" height="110" viewBox="0 0 80 110" xmlns="http://www.w3.org/2000/svg"><rect x="10" y="10" width="60" height="85" rx="30" fill="#4B5563" stroke="#374151" stroke-width="2"/><text x="40" y="28" font-family="Arial" font-size="7" fill="white" font-weight="bold" font-style="italic" text-anchor="middle">MikroTik</text><text x="40" y="38" font-family="Arial" font-size="7" fill="white" font-weight="bold" text-anchor="middle">Wireless</text><text x="40" y="46" font-family="Arial" font-size="7" fill="white" font-weight="bold" text-anchor="middle">Wire</text><line x1="25" y1="52" x2="55" y2="52" stroke="white" stroke-width="1.5"/><circle cx="25" cy="52" r="2.5" fill="white"/><circle cx="55" cy="52" r="2.5" fill="white"/><path d="M 30 52 Q 40 46 50 52" fill="none" stroke="white" stroke-width="1.2" stroke-dasharray="2,2"/><rect x="23" y="58" width="34" height="9" rx="4" fill="#7C3AED" stroke="#6B21A8" stroke-width="1"/><text x="40" y="64" font-family="Arial" font-size="6" fill="white" font-weight="bold" text-anchor="middle">60GHz</text><rect x="27" y="72" width="26" height="10" rx="1" fill="#9CA3AF" stroke="#6B7280" stroke-width="1"/><g><rect x="34.5" y="73.5" width="11" height="11" rx="1" fill="#E5E7EB" stroke="#9CA3AF" stroke-width="1.5"/><rect x="36" y="75" width="8" height="8" rx="0.5" fill="#9CA3AF" stroke="#6B7280" stroke-width="1"/><path d="&#10;          M 37 76&#10;          h 6&#10;          v 3.9000000000000004&#10;          h -1.9500000000000002&#10;          v 2.0999999999999996&#10;          h -2.0999999999999996&#10;          v -2.0999999999999996&#10;          h -1.9500000000000002&#10;          Z&#10;        " fill="#000000"/></g><text x="40" y="103" font-family="Arial" font-size="7" fill="#374151" font-weight="bold" text-anchor="middle">Wireless Wire</text></svg>